PathFileType	4	(X/Y/Z)	C:/Users/dbak576/Desktop/Duncan Bakke Modelling Files/H20s1/Static_H20s1.trc	
DataRate	CameraRate	NumFrames	NumMarkers	Units	OrigDataRate	OrigDataStartFrame	OrigNumFrames	
200.00	200.00	6	61	mm	200.00	969	672	
Frame#	Time	LFHD			RFHD			LBHD			RBHD			C7			T10			CLAV			STRN			RBack			LASI			RASI			LPSI			RPSI			RACR1			RUA1			RElbow			RElbowM			RFA1			RWRR			RWRU			RCAR			LACR1			LUA1			LElbow			LElbowM			LFA1			LWRR			LWRU			LCAR			RTH1			RTH3			RTH2			RTH4			RLFC			RMFC			RTB1			RTB3			RTB2			RTB4			RLMAL			RMMAL			RCAL			RMT1			RMT5			RToe			LTH1			LTH3			LTH2			LTH4			LLFC			LMFC			LTB1			LTB3			LTB2			LTB4			LLMAL			LMMAL			LCAL			LMT1			LMT5			LToe			
		X1	Y1	Z1	X2	Y2	Z2	X3	Y3	Z3	X4	Y4	Z4	X5	Y5	Z5	X6	Y6	Z6	X7	Y7	Z7	X8	Y8	Z8	X9	Y9	Z9	X10	Y10	Z10	X11	Y11	Z11	X12	Y12	Z12	X13	Y13	Z13	X14	Y14	Z14	X15	Y15	Z15	X16	Y16	Z16	X17	Y17	Z17	X18	Y18	Z18	X19	Y19	Z19	X20	Y20	Z20	X21	Y21	Z21	X22	Y22	Z22	X23	Y23	Z23	X24	Y24	Z24	X25	Y25	Z25	X26	Y26	Z26	X27	Y27	Z27	X28	Y28	Z28	X29	Y29	Z29	X30	Y30	Z30	X31	Y31	Z31	X32	Y32	Z32	X33	Y33	Z33	X34	Y34	Z34	X35	Y35	Z35	X36	Y36	Z36	X37	Y37	Z37	X38	Y38	Z38	X39	Y39	Z39	X40	Y40	Z40	X41	Y41	Z41	X42	Y42	Z42	X43	Y43	Z43	X44	Y44	Z44	X45	Y45	Z45	X46	Y46	Z46	X47	Y47	Z47	X48	Y48	Z48	X49	Y49	Z49	X50	Y50	Z50	X51	Y51	Z51	X52	Y52	Z52	X53	Y53	Z53	X54	Y54	Z54	X55	Y55	Z55	X56	Y56	Z56	X57	Y57	Z57	X58	Y58	Z58	X59	Y59	Z59	X60	Y60	Z60	X61	Y61	Z61	

589	2.940	-26.67967	-336.76779	1650.24475	54.35900	-340.00885	1655.29675	-58.67208	-512.77368	1600.76770	79.60246	-519.26208	1599.82434	9.15235	-527.80249	1455.76648	-9.04863	-558.24060	1135.02698	1.04881	-375.87384	1400.53345	-4.30327	-338.87271	1237.03113	91.11975	-589.44348	1355.16541	-158.55449	-358.52325	966.44464	146.75098	-366.88718	959.98102	-69.09696	-536.41370	977.40509	34.70143	-546.48639	976.75885	120.67085	-492.18445	1458.82556	290.83154	-478.59662	1414.07410	412.99347	-445.64197	1390.96948	395.22137	-379.79041	1334.36023	540.03625	-396.01450	1438.29419	646.06281	-300.37622	1494.10107	656.96771	-322.06378	1420.57874	712.39227	-307.92938	1465.19189	-132.59528	-498.98560	1464.98865	-311.81332	-479.46741	1414.90369	-426.19968	-443.16232	1389.21558	-394.53357	-404.92627	1329.62207	-554.07086	-388.09445	1465.49377	-636.86243	-303.84515	1506.80469	-655.93170	-309.60373	1429.89270	-707.88751	-312.57150	1491.78906	202.98900	-441.79291	764.91876	201.08261	-443.89783	575.70435	185.02089	-372.44742	671.54608	204.98354	-442.26126	668.14374	196.55208	-447.83652	472.05649	65.59456	-463.20959	439.11105	132.36447	-412.79959	369.31491	155.44194	-440.75165	182.22734	215.53366	-446.25900	287.10849	146.19026	-424.28583	278.17810	199.54193	-512.83362	88.52088	115.77536	-476.54486	92.44374	159.72662	-559.00598	35.09212	140.62650	-352.02121	38.67642	227.04019	-389.36554	33.58865	167.36858	-295.43695	26.16582	-210.57217	-408.99417	769.85394	-207.61589	-429.50827	583.35602	-175.10410	-352.63620	665.05841	-214.33865	-419.84595	672.47449	-204.20508	-452.49954	469.51944	-79.10995	-473.77988	435.37790	-160.24112	-420.16147	371.07523	-170.67824	-463.40976	190.13547	-228.54411	-476.41077	292.22308	-165.11478	-443.27066	280.90112	-204.54846	-547.39911	79.92844	-120.17915	-509.47672	85.85793	-160.15346	-593.76520	32.96483	-143.59624	-379.56635	35.98052	-233.19798	-413.23233	31.97135	-160.38179	-333.00043	26.92513 
590	2.945	-26.67259	-336.73251	1650.21704	54.39491	-339.96494	1655.29590	-58.65848	-512.76685	1600.74866	79.64124	-519.26135	1599.83667	9.17785	-527.77423	1455.75684	-9.05002	-558.23224	1135.03186	1.07701	-375.87570	1400.53223	-4.28514	-338.84756	1237.02808	91.13806	-589.42432	1355.16431	-158.55264	-358.49930	966.44287	146.73956	-366.87643	959.97498	-69.10991	-536.36646	977.38562	34.70284	-546.48737	976.74457	120.70025	-492.17004	1458.81726	290.83463	-478.59320	1414.07068	412.99225	-445.64197	1390.94165	395.21555	-379.75082	1334.34448	540.05005	-396.00574	1438.26184	646.07776	-300.37216	1494.10034	656.95520	-322.06757	1420.55103	712.42395	-307.92325	1465.15454	-132.58131	-498.97208	1464.99170	-311.80704	-479.44424	1414.90332	-426.15955	-443.10580	1389.21924	-394.47983	-404.90997	1329.59326	-554.02344	-388.06250	1465.51721	-636.86963	-303.79407	1506.80640	-655.86823	-309.53876	1429.89453	-707.75922	-312.45316	1491.74426	202.99063	-441.77002	764.92004	201.10701	-443.87347	575.71771	185.06764	-372.46609	671.58325	204.94040	-442.24142	668.11310	196.56055	-447.83691	472.05786	65.63401	-463.18076	439.12393	132.33046	-412.81345	369.31323	155.44031	-440.75082	182.23088	215.50648	-446.23010	287.09424	146.17195	-424.28128	278.18634	199.55020	-512.83069	88.49311	115.99108	-476.48932	92.32375	159.71611	-559.01770	35.12298	140.61531	-352.02151	38.67260	227.03775	-389.34354	33.56580	167.37216	-295.47949	26.12158	-210.57124	-408.95496	769.86469	-207.62660	-429.50082	583.35437	-175.10100	-352.59485	665.07715	-214.37181	-419.84021	672.47003	-204.14995	-452.52487	469.56271	-79.10550	-473.76810	435.37332	-160.25909	-420.18826	371.08636	-170.67563	-463.41089	190.14963	-228.55069	-476.42184	292.24564	-165.11687	-443.27774	280.96283	-204.42844	-547.38684	79.94534	-120.12527	-509.50668	85.85493	-160.14645	-593.74396	32.96087	-143.59796	-379.57962	35.98724	-233.15269	-413.21622	32.01880	-160.40096	-333.00266	26.90696 
591	2.950	-26.59109	-336.66360	1650.20715	54.41789	-339.92459	1655.31055	-58.64197	-512.70996	1600.73523	79.63979	-519.22412	1599.82458	9.16140	-527.72168	1455.78284	-9.04065	-558.17767	1135.02991	1.10438	-375.85123	1400.53296	-4.25536	-338.81427	1237.01953	91.13657	-589.42822	1355.15576	-158.53764	-358.49698	966.45099	146.74751	-366.86487	959.97668	-69.09242	-536.35382	977.39471	34.67421	-546.47461	976.75128	120.69743	-492.14676	1458.80090	290.85931	-478.58008	1414.04309	412.99051	-445.61505	1390.91211	395.21121	-379.73483	1334.34607	540.05811	-395.98541	1438.25391	646.11450	-300.34418	1494.08801	656.96161	-322.06589	1420.54468	712.43671	-307.92657	1465.16772	-132.57623	-498.94785	1464.99207	-311.78775	-479.40894	1414.91431	-426.15466	-443.05371	1389.21680	-394.48932	-404.89551	1329.56775	-553.99811	-388.00122	1465.52808	-636.83331	-303.75992	1506.81226	-655.83289	-309.45364	1429.97656	-707.68793	-312.36975	1491.71985	202.98717	-441.73169	764.91565	201.10193	-443.84799	575.71313	185.09163	-372.45609	671.56543	204.91028	-442.20862	668.09375	196.56976	-447.84976	472.03125	65.68260	-463.13394	439.11066	132.32291	-412.80432	369.30090	155.43907	-440.75000	182.23067	215.56981	-446.20074	287.08682	146.18074	-424.27893	278.16879	199.55737	-512.82477	88.51076	116.11642	-476.46805	92.23085	159.73093	-559.01373	35.11769	140.64653	-352.02530	38.67579	227.05121	-389.36087	33.60098	167.38503	-295.50119	26.07024	-210.55658	-408.91788	769.87067	-207.63976	-429.49860	583.34705	-175.08441	-352.57495	665.06531	-214.26543	-419.88327	672.51831	-204.08728	-452.44550	469.38065	-79.08753	-473.75293	435.39020	-160.24773	-420.17822	371.08127	-170.67932	-463.40933	190.14560	-228.56866	-476.41962	292.22134	-165.14590	-443.26727	280.94513	-204.32883	-547.36810	79.92873	-120.15696	-509.55307	85.88648	-160.15340	-593.76208	32.95608	-143.59834	-379.58881	36.00122	-233.08691	-413.20987	32.08009	-160.40085	-333.02548	26.87397 
592	2.955	-26.50993	-336.63773	1650.22363	54.42443	-339.87485	1655.30493	-58.62831	-512.68311	1600.73560	79.64520	-519.19598	1599.82654	9.17530	-527.69324	1455.78906	-9.04420	-558.14471	1135.02295	1.10158	-375.81140	1400.53259	-4.24099	-338.78662	1237.01392	91.13702	-589.39514	1355.15222	-158.54269	-358.50342	966.43689	146.78366	-366.82465	959.98846	-69.07825	-536.35974	977.40088	34.64821	-546.45892	976.76538	120.71111	-492.13950	1458.76904	290.89700	-478.56274	1414.02051	412.99966	-445.59442	1390.91675	395.19513	-379.68805	1334.32898	540.06708	-395.98804	1438.23059	646.16266	-300.32986	1494.06348	656.97308	-322.06366	1420.55164	712.34131	-307.85095	1465.10913	-132.54890	-498.89206	1465.02332	-311.78018	-479.39819	1414.90747	-426.17767	-443.02798	1389.24036	-394.52966	-404.88397	1329.61768	-553.98163	-387.94891	1465.52588	-636.79626	-303.72406	1506.81006	-655.80396	-309.39053	1429.93799	-707.66333	-312.30612	1491.72571	203.00583	-441.70221	764.91309	201.06836	-443.83386	575.70239	185.06529	-372.47815	671.55017	204.86761	-442.16229	667.95288	196.55995	-447.85287	472.02438	65.70794	-463.09644	439.09515	132.35220	-412.79907	369.29407	155.43954	-440.74857	182.21271	215.57494	-446.20490	287.10144	146.18483	-424.28195	278.16571	199.54497	-512.80511	88.51836	116.11129	-476.48517	92.22739	159.72281	-558.98615	35.09165	140.65057	-352.03433	38.66650	227.03375	-389.36301	33.58832	167.38002	-295.50104	26.05402	-210.52629	-408.92023	769.89252	-207.64037	-429.50250	583.35657	-175.06859	-352.57715	665.06885	-214.24744	-419.88062	672.48138	-204.09052	-452.41656	469.33118	-79.07329	-473.74390	435.40643	-160.23045	-420.16476	371.05508	-170.68669	-463.40796	190.14783	-228.57062	-476.42532	292.23221	-165.11821	-443.26883	280.95691	-204.42044	-547.39453	79.89198	-120.17525	-509.58295	85.87407	-160.20425	-593.83057	32.93603	-143.57173	-379.55954	35.96944	-233.02251	-413.18292	32.10564	-160.37584	-333.02014	26.86708 
593	2.960	-26.47418	-336.59933	1650.20361	54.44707	-339.82730	1655.30823	-58.62444	-512.68109	1600.74707	79.67064	-519.20068	1599.82520	9.19112	-527.69165	1455.78503	-9.03331	-558.13037	1135.04041	1.17748	-375.79089	1400.49194	-4.24489	-338.76816	1237.01355	91.14294	-589.37366	1355.15149	-158.52986	-358.46185	966.42511	146.81586	-366.80228	959.97992	-69.07492	-536.36633	977.40125	34.64202	-546.42438	976.78516	120.72545	-492.12061	1458.79211	290.92017	-478.55270	1414.01257	413.00153	-445.59186	1390.89685	395.17731	-379.65588	1334.32202	540.07178	-395.97870	1438.21069	646.17133	-300.33167	1494.05078	656.97992	-322.06165	1420.54053	712.29803	-307.79639	1465.03369	-132.54509	-498.87421	1465.03711	-311.79584	-479.37332	1414.93530	-426.19034	-442.99451	1389.23596	-394.52423	-404.85156	1329.64539	-553.97119	-387.88513	1465.51807	-636.70880	-303.68814	1506.78503	-655.77594	-309.30582	1429.91260	-707.65082	-312.21912	1491.73694	203.02892	-441.69415	764.91864	201.03189	-443.83057	575.68823	185.05676	-372.43985	671.55695	204.86153	-442.14981	667.91003	196.56219	-447.85355	472.01495	65.68552	-463.09134	439.09116	132.38338	-412.81006	369.29007	155.44118	-440.75082	182.21793	215.64752	-446.20032	287.10861	146.19485	-424.29205	278.16846	199.52608	-512.80084	88.51663	116.05757	-476.49966	92.24963	159.71852	-558.97931	35.08916	140.65874	-352.03360	38.66069	227.01537	-389.37125	33.56651	167.36520	-295.46347	26.10100	-210.54135	-408.91763	769.87421	-207.62840	-429.48688	583.35840	-175.05583	-352.56436	665.03088	-214.31668	-419.84409	672.44629	-204.11240	-452.41901	469.35587	-79.06733	-473.74078	435.40945	-160.23454	-420.19604	371.04510	-170.68350	-463.40796	190.16190	-228.55685	-476.43683	292.24246	-165.10274	-443.24280	280.97083	-204.41000	-547.38239	79.91009	-120.20895	-509.56021	85.89576	-160.22285	-593.87396	32.94602	-143.59540	-379.55713	35.91452	-233.11275	-413.21741	32.05934	-160.38072	-333.00250	26.87704 
594	2.965	-26.43778	-336.57587	1650.21924	54.46467	-339.81296	1655.30164	-58.59201	-512.64227	1600.74609	79.69574	-519.21167	1599.80603	9.22481	-527.65442	1455.76025	-9.05359	-558.12146	1135.05273	1.15715	-375.79575	1400.50928	-4.25742	-338.75671	1237.01672	91.13803	-589.35089	1355.15149	-158.52818	-358.42111	966.43207	146.80591	-366.80017	959.96283	-69.09153	-536.34973	977.41321	34.67107	-546.39087	976.78772	120.73138	-492.12552	1458.78870	290.92258	-478.55090	1414.00256	412.97464	-445.58484	1390.86792	395.17062	-379.63919	1334.31506	540.08606	-395.98483	1438.15283	646.17865	-300.33246	1494.02954	656.97491	-322.06049	1420.51831	712.23877	-307.79648	1464.99658	-132.52296	-498.87451	1465.05054	-311.79910	-479.32858	1414.94836	-426.19482	-442.98532	1389.22913	-394.50623	-404.83392	1329.64856	-553.95844	-387.85657	1465.53186	-636.69025	-303.65396	1506.80530	-655.74646	-309.23279	1429.90039	-707.64343	-312.14078	1491.73608	203.05070	-441.67203	764.90326	201.00427	-443.83630	575.65692	184.95892	-372.23373	671.35236	204.86743	-442.17346	668.11176	196.54260	-447.85321	472.01703	65.59989	-463.18045	439.05887	132.39404	-412.80942	369.28427	155.44193	-440.75037	182.20996	215.64862	-446.21170	287.12781	146.20845	-424.26804	278.16315	199.51900	-512.80164	88.49808	115.66473	-476.59949	92.41053	159.70857	-558.97131	35.11196	140.66702	-352.02353	38.64544	227.02477	-389.36423	33.56099	167.37363	-295.46704	26.09836	-210.53470	-408.91339	769.87946	-207.61745	-429.48541	583.37396	-175.05206	-352.55734	665.01697	-214.28096	-419.85443	672.50128	-204.13240	-452.42712	469.38571	-79.04615	-473.74188	435.41174	-160.21980	-420.19058	371.06772	-170.68329	-463.40668	190.15053	-228.54715	-476.43341	292.22083	-165.13420	-443.22980	280.94400	-204.36815	-547.38068	79.93284	-120.22633	-509.52307	85.89370	-160.21910	-593.88086	32.95818	-143.59512	-379.57138	35.96167	-233.10330	-413.21469	32.06922	-160.37228	-332.98929	26.85603 
